<?xml version="1.0" encoding="UTF-8" standalone="no"?>
<!-- Generator: Adobe Illustrator 17.1.0, SVG Export Plug-In . SVG Version: 6.00 Build 0)  -->

<svg
   xmlns:dc="http://purl.org/dc/elements/1.1/"
   xmlns:cc="http://creativecommons.org/ns#"
   xmlns:rdf="http://www.w3.org/1999/02/22-rdf-syntax-ns#"
   xmlns:svg="http://www.w3.org/2000/svg"
   xmlns="http://www.w3.org/2000/svg"
   xmlns:sodipodi="http://sodipodi.sourceforge.net/DTD/sodipodi-0.dtd"
   xmlns:inkscape="http://www.inkscape.org/namespaces/inkscape"
   version="1.1"
   id="Capa_1"
   x="0px"
   y="0px"
   viewBox="0 0 206.688 206.688"
   style="enable-background:new 0 0 206.688 206.688;"
   xml:space="preserve"
   sodipodi:docname="quote.svg"
   inkscape:version="0.92.4 (5da689c313, 2019-01-14)"><metadata
   id="metadata94"><rdf:RDF><cc:Work
       rdf:about=""><dc:format>image/svg+xml</dc:format><dc:type
         rdf:resource="http://purl.org/dc/dcmitype/StillImage" /><dc:title></dc:title></cc:Work></rdf:RDF></metadata><defs
   id="defs92" /><sodipodi:namedview
   pagecolor="#ffffff"
   bordercolor="#666666"
   borderopacity="1"
   objecttolerance="10"
   gridtolerance="10"
   guidetolerance="10"
   inkscape:pageopacity="0"
   inkscape:pageshadow="2"
   inkscape:window-width="1920"
   inkscape:window-height="1018"
   id="namedview90"
   showgrid="false"
   inkscape:zoom="1.4576119"
   inkscape:cx="103.344"
   inkscape:cy="161.77171"
   inkscape:window-x="-8"
   inkscape:window-y="-8"
   inkscape:window-maximized="1"
   inkscape:current-layer="Capa_1" />
<g
   id="g57"
   transform="matrix(0.53529968,0,0,0.59087149,46.65165,43.309811)">
	<path
   d="M 175.77,27.046 H 81.372 c -17.048,0 -30.918,13.87 -30.918,30.919 v 4.391 h 54.125 c 21.492,0 38.976,17.485 38.976,38.976 v 19.05 l 15.004,15.003 c 1.296,1.297 3.012,2.011 4.831,2.011 3.785,0 6.865,-3.075 6.865,-6.855 v -12.598 h 5.513 c 17.049,0 30.919,-13.87 30.919,-30.919 V 57.964 C 206.688,40.916 192.818,27.046 175.77,27.046 Z"
   id="path53"
   inkscape:connector-curvature="0" />
	<path
   d="M 104.58,72.357 H 50.454 28.976 c -2.5,0 -4.927,0.317 -7.242,0.912 C 9.236,76.485 0,87.83 0,101.333 v 32.488 c 0,5.001 1.267,9.706 3.497,13.812 0.446,0.821 0.931,1.618 1.451,2.389 1.041,1.542 2.227,2.978 3.538,4.288 5.244,5.244 12.488,8.487 20.49,8.487 H 40.73 v 11.296 c 0,0.275 0.025,0.54 0.061,0.799 0.009,0.067 0.02,0.133 0.031,0.198 0.041,0.237 0.093,0.468 0.162,0.689 0.005,0.017 0.009,0.035 0.014,0.052 0.076,0.236 0.171,0.459 0.275,0.677 0.027,0.056 0.056,0.112 0.085,0.167 0.099,0.188 0.206,0.371 0.325,0.544 0.017,0.024 0.031,0.051 0.048,0.075 0.135,0.191 0.285,0.369 0.443,0.539 0.041,0.044 0.084,0.087 0.126,0.13 0.14,0.142 0.286,0.276 0.44,0.401 0.03,0.024 0.058,0.051 0.089,0.075 0.18,0.141 0.37,0.268 0.566,0.386 0.05,0.03 0.101,0.058 0.152,0.086 0.169,0.095 0.343,0.181 0.52,0.258 0.04,0.018 0.08,0.038 0.12,0.054 0.211,0.086 0.428,0.158 0.648,0.218 0.053,0.014 0.107,0.026 0.161,0.039 0.187,0.045 0.376,0.081 0.567,0.107 0.048,0.007 0.096,0.016 0.145,0.021 0.229,0.025 0.459,0.036 0.69,0.032 0.048,-10e-4 0.096,-0.005 0.144,-0.007 0.204,-0.009 0.407,-0.028 0.61,-0.06 0.041,-0.006 0.081,-0.01 0.122,-0.017 0.229,-0.041 0.456,-0.1 0.682,-0.172 0.051,-0.016 0.101,-0.035 0.152,-0.053 0.209,-0.074 0.415,-0.159 0.618,-0.261 0.024,-0.012 0.048,-0.021 0.072,-0.033 0.218,-0.114 0.431,-0.249 0.639,-0.396 0.049,-0.035 0.097,-0.071 0.145,-0.107 0.209,-0.158 0.414,-0.328 0.609,-0.523 l 15.214,-15.213 v 0 h 39.178 c 16.003,0 28.976,-12.973 28.976,-28.977 V 117.944 101.333 C 133.556,85.33 120.583,72.357 104.58,72.357 Z"
   id="path55"
   inkscape:connector-curvature="0" />
</g>
<g
   id="g59">
</g>
<g
   id="g61">
</g>
<g
   id="g63">
</g>
<g
   id="g65">
</g>
<g
   id="g67">
</g>
<g
   id="g69">
</g>
<g
   id="g71">
</g>
<g
   id="g73">
</g>
<g
   id="g75">
</g>
<g
   id="g77">
</g>
<g
   id="g79">
</g>
<g
   id="g81">
</g>
<g
   id="g83">
</g>
<g
   id="g85">
</g>
<g
   id="g87">
</g>
<rect
   id="rect96"
   width="8.2326441"
   height="202.38583"
   x="2.7442148"
   y="2.9300635" /><rect
   id="rect98"
   width="200.32767"
   height="8.2326508"
   x="2.7442148"
   y="197.08325" /><rect
   id="rect100"
   width="192.78108"
   height="8.2326441"
   x="10.976859"
   y="2.9300635" /><rect
   id="rect102"
   width="8.9186926"
   height="190.72292"
   x="194.83925"
   y="11.162707" /></svg>