<?xml version="1.0" encoding="utf-8"?><svg xmlns="http://www.w3.org/2000/svg" xmlns:xlink="http://www.w3.org/1999/xlink"><symbol viewBox="0 0 455 455" id="icons--aim" xmlns="http://www.w3.org/2000/svg"><path d="M227.5 167.5c-33.084 0-60 26.916-60 60s26.916 60 60 60 60-26.916 60-60-26.916-60-60-60z"/><path d="M227.5 83.75c-79.264 0-143.75 64.486-143.75 143.75s64.486 143.75 143.75 143.75 143.75-64.486 143.75-143.75S306.764 83.75 227.5 83.75zm0 233.75c-49.626 0-90-40.374-90-90s40.374-90 90-90 90 40.374 90 90-40.374 90-90 90z"/><path d="M227.5 0C101.753 0 0 101.753 0 227.5S101.753 455 227.5 455 455 353.247 455 227.5 353.247 0 227.5 0zm122.887 350.387c-32.8 32.8-76.442 50.863-122.887 50.863s-90.087-18.063-122.887-50.863S53.75 273.945 53.75 227.5s18.063-90.087 50.863-122.887S181.056 53.75 227.5 53.75s90.087 18.063 122.887 50.863S401.25 181.055 401.25 227.5s-18.063 90.087-50.863 122.887z"/></symbol><symbol viewBox="0 0 33.081 33.081" id="icons--alarm" xmlns="http://www.w3.org/2000/svg"><path d="M10.364 1.832l-.172-.207A5.543 5.543 0 006.262 0a5.556 5.556 0 00-4.077 9.332 14.045 14.045 0 018.179-7.5zm20.386.342A5.538 5.538 0 0026.817.547a5.53 5.53 0 00-3.928 1.627l-.188.199a14.071 14.071 0 018.193 7.506 5.553 5.553 0 00-.144-7.705zm-4.113 5.33A14.236 14.236 0 0016.541 3.32 14.226 14.226 0 006.446 7.504c-5.579 5.576-5.579 14.615 0 20.195.035.033.072.062.105.096l-3.593 3.596s-.115 1.311 1.681 1.68l3.758-3.756c2.441 1.703 5.287 2.568 8.144 2.568s5.704-.865 8.147-2.568l3.753 3.756c1.852.164 1.682-1.68 1.682-1.68l-3.591-3.596c.032-.033.068-.062.104-.096 5.579-5.58 5.579-14.619.001-20.195zm-2.463 17.609c-.05.043-.098.09-.146.137l-.606.6-.775.539a10.647 10.647 0 01-12.206 0l-.785-.547-.599-.592c-.047-.047-.096-.09-.145-.135A10.645 10.645 0 015.833 17.6c0-2.859 1.115-5.551 3.136-7.572a10.643 10.643 0 017.572-3.137 10.62 10.62 0 017.571 3.137A10.634 10.634 0 0127.25 17.6c0 2.841-1.098 5.515-3.076 7.513zM17.997 9.85a1.478 1.478 0 00-2.957 0v9.576h2.955v-.004l6.618.004c.814 0 1.476-.66 1.476-1.48 0-.818-.661-1.479-1.476-1.479h-6.618l.002-6.617z"/></symbol><symbol viewBox="0 0 492.004 492.004" id="icons--arrow" xmlns="http://www.w3.org/2000/svg"><path d="M382.678 226.804L163.73 7.86C158.666 2.792 151.906 0 144.698 0s-13.968 2.792-19.032 7.86l-16.124 16.12c-10.492 10.504-10.492 27.576 0 38.064L293.398 245.9l-184.06 184.06c-5.064 5.068-7.86 11.824-7.86 19.028 0 7.212 2.796 13.968 7.86 19.04l16.124 16.116c5.068 5.068 11.824 7.86 19.032 7.86s13.968-2.792 19.032-7.86L382.678 265c5.076-5.084 7.864-11.872 7.848-19.088.016-7.244-2.772-14.028-7.848-19.108z"/></symbol><symbol viewBox="0 0 502.485 502.485" id="icons--book" xmlns="http://www.w3.org/2000/svg"><path d="M493.376 4.267c-5.333-4.267-12.8-5.333-19.2-3.2L251.242 76.8 28.309 1.067c-6.4-2.133-13.867-1.067-19.2 3.2C3.776 8.533.576 14.933.576 21.333v380.8c0 9.6 5.333 17.067 13.867 20.267l229.333 77.867c7.467 4.267 14.933 1.067 14.933 1.067l229.333-77.867c8.533-3.2 13.867-11.733 13.867-20.267V21.334c0-6.401-3.2-12.801-8.533-17.067zM229.909 451.2l-187.733-64V50.133l187.733 64V451.2zm230.4-64l-187.733 64V114.133l187.733-64V387.2z"/><path d="M174.442 156.8l-55.467-30.933c-10.667-6.4-23.467-2.133-28.8 7.467-5.333 10.667-2.133 23.467 7.467 28.8l55.467 30.933c3.2 2.133 7.467 3.2 10.667 3.2 7.467 0 14.933-4.267 18.133-10.667 6.4-10.667 2.134-23.467-7.467-28.8zm0 90.667l-55.467-30.933c-10.667-6.4-23.467-2.133-28.8 7.467-6.4 10.667-2.133 23.467 7.467 28.8l55.467 30.933c3.2 2.133 7.467 3.2 10.667 3.2 7.467 0 14.933-3.2 18.133-10.667 6.4-10.667 2.134-23.467-7.467-28.8zm0 91.733l-55.467-30.933c-10.667-6.4-23.467-2.133-28.8 7.467-6.4 10.667-2.133 23.467 7.467 28.8l55.467 30.933c3.2 2.133 7.467 3.2 10.667 3.2 7.467 0 14.933-4.267 18.133-10.667 6.4-10.667 2.134-23.467-7.467-28.8zm237.867-205.867c-6.4-9.6-19.2-12.8-28.8-7.467L328.042 156.8c-9.6 6.4-12.8 19.2-7.467 28.8 4.267 6.4 10.667 10.667 18.133 10.667 3.2 0 6.4-1.067 10.667-3.2l55.467-30.933c9.6-6.401 12.801-19.2 7.467-28.801zm0 90.667c-6.4-9.6-19.2-12.8-28.8-7.467l-55.467 30.933c-9.6 6.4-12.8 19.2-7.467 28.8 4.267 6.4 10.667 10.667 18.133 10.667 3.2 0 6.4-1.067 10.667-3.2l55.467-30.933c9.6-6.4 12.801-19.2 7.467-28.8zm0 91.733c-6.4-9.6-19.2-12.8-28.8-7.467L328.042 339.2c-9.6 6.4-12.8 19.2-7.467 28.8 4.267 6.4 10.667 10.667 18.133 10.667 3.2 0 6.4-1.067 10.667-3.2l55.467-30.933c9.6-6.401 12.801-19.2 7.467-28.801z"/></symbol><symbol viewBox="0 -31 512 512" id="icons--cart" xmlns="http://www.w3.org/2000/svg"><path d="M164.96 300.004h.024c.02 0 .04-.004.059-.004H437a15.003 15.003 0 0014.422-10.879l60-210a15.003 15.003 0 00-2.445-13.152A15.006 15.006 0 00497 60H130.367l-10.722-48.254A15.003 15.003 0 00105 0H15C6.715 0 0 6.715 0 15s6.715 15 15 15h77.969c1.898 8.55 51.312 230.918 54.156 243.71C131.184 280.64 120 296.536 120 315c0 24.812 20.188 45 45 45h272c8.285 0 15-6.715 15-15s-6.715-15-15-15H165c-8.27 0-15-6.73-15-15 0-8.258 6.707-14.977 14.96-14.996zM477.114 90l-51.43 180H177.032l-40-180zM150 405c0 24.813 20.188 45 45 45s45-20.188 45-45-20.188-45-45-45-45 20.188-45 45zm45-15c8.27 0 15 6.73 15 15s-6.73 15-15 15-15-6.73-15-15 6.73-15 15-15zm167 15c0 24.813 20.188 45 45 45s45-20.188 45-45-20.188-45-45-45-45 20.188-45 45zm45-15c8.27 0 15 6.73 15 15s-6.73 15-15 15-15-6.73-15-15 6.73-15 15-15zm0 0"/></symbol><symbol viewBox="0 0 60 60" id="icons--comment" xmlns="http://www.w3.org/2000/svg"><path d="M30 1.5c-16.542 0-30 12.112-30 27 0 5.204 1.646 10.245 4.768 14.604-.591 6.537-2.175 11.39-4.475 13.689a1 1 0 00.846 1.697c.405-.057 9.813-1.411 16.618-5.339C21.621 54.71 25.737 55.5 30 55.5c16.542 0 30-12.112 30-27s-13.458-27-30-27zm-14 31c-2.206 0-4-1.794-4-4s1.794-4 4-4 4 1.794 4 4-1.794 4-4 4zm14 0c-2.206 0-4-1.794-4-4s1.794-4 4-4 4 1.794 4 4-1.794 4-4 4zm14 0c-2.206 0-4-1.794-4-4s1.794-4 4-4 4 1.794 4 4-1.794 4-4 4z"/></symbol><symbol viewBox="0 0 612 612" id="icons--digital" xmlns="http://www.w3.org/2000/svg"><path d="M243.958 340.177l-91.379 91.379L153 382.5c0-10.557-8.568-19.125-19.125-19.125s-19.125 8.568-19.125 19.125v95.625c0 5.661 2.333 10.231 6.043 13.388 3.461 3.538 8.281 5.737 13.617 5.737h95.09c10.557 0 19.125-8.568 19.125-19.125S240.057 459 229.5 459h-50.28l91.781-91.781-27.043-27.042zM229.5 153c10.557 0 19.125-8.568 19.125-19.125s-8.568-19.125-19.125-19.125h-95.089c-5.336 0-10.156 2.219-13.617 5.737-3.71 3.156-6.043 7.727-6.043 13.388V229.5c0 10.557 8.568 19.125 19.125 19.125S153 240.057 153 229.5l-.421-49.075 91.379 91.379 27.043-27.043L179.239 153H229.5zm248.625 210.375c-10.557 0-19.125 8.568-19.125 19.125l.421 49.075-91.38-91.38-27.042 27.043L432.779 459H382.5c-10.557 0-19.125 8.568-19.125 19.125s8.568 19.125 19.125 19.125h95.09c5.354 0 10.155-2.219 13.616-5.757 3.711-3.137 6.044-7.707 6.044-13.368V382.5c0-10.557-8.568-19.125-19.125-19.125zm-.535-248.625H382.5c-10.557 0-19.125 8.568-19.125 19.125S371.943 153 382.5 153h50.261l-91.781 91.781 27.043 27.043 91.379-91.379L459 229.5c0 10.557 8.568 19.125 19.125 19.125s19.125-8.568 19.125-19.125v-95.625c0-5.661-2.353-10.232-6.044-13.388-3.461-3.518-8.28-5.737-13.616-5.737zM535.5 0h-459C34.253 0 0 34.253 0 76.5v459C0 577.747 34.253 612 76.5 612h459c42.247 0 76.5-34.253 76.5-76.5v-459C612 34.253 577.747 0 535.5 0zm38.25 535.5c0 21.133-17.117 38.25-38.25 38.25h-459c-21.133 0-38.25-17.117-38.25-38.25v-459c0-21.114 17.117-38.25 38.25-38.25h459c21.133 0 38.25 17.136 38.25 38.25v459z"/></symbol><symbol viewBox="0 0 95.884 95.884" id="icons--equalizer" xmlns="http://www.w3.org/2000/svg"><path d="M42.893 33.654h10.098a2 2 0 002-2V2a2 2 0 00-2-2H42.893a2 2 0 00-2 2v29.654a2 2 0 002 2zM52.991 62.23H42.893a2 2 0 00-2 2v29.653a2 2 0 002 2h10.098a2 2 0 002-2V64.23a2 2 0 00-2-2zm4.382-22.86H38.512a2 2 0 00-2 2v13.146a2 2 0 002 2h18.86a2 2 0 002-2V41.37c.001-1.105-.894-2-1.999-2zM8.601 13.079H18.7a2 2 0 002-2V2a2 2 0 00-2-2H8.601a2 2 0 00-2 2v9.079a2 2 0 002 2zM18.7 41.655H8.601a2 2 0 00-2 2v50.229a2 2 0 002 2H18.7a2 2 0 002-2V43.655a2 2 0 00-2-2zm4.381-22.86H4.22a2 2 0 00-2 2v13.146a2 2 0 002 2h18.86a2 2 0 002-2V20.795c.001-1.105-.895-2-1.999-2zm54.104 4.571h10.098a2 2 0 002-2V2a2 2 0 00-2-2H77.185a2 2 0 00-2 2v19.366a2 2 0 002 2zm10.097 28.577H77.185a2 2 0 00-2 2v39.94a2 2 0 002 2h10.098a2 2 0 002-2v-39.94a2 2 0 00-2.001-2zm4.382-22.861h-18.86a2 2 0 00-2 2v13.146a2 2 0 002 2h18.86a2 2 0 002-2V31.082a2 2 0 00-2-2z"/></symbol><symbol viewBox="0 0 469.333 469.333" id="icons--eye" xmlns="http://www.w3.org/2000/svg"><path d="M234.667 170.667c-35.307 0-64 28.693-64 64s28.693 64 64 64 64-28.693 64-64-28.694-64-64-64z"/><path d="M234.667 74.667C128 74.667 36.907 141.013 0 234.667c36.907 93.653 128 160 234.667 160 106.773 0 197.76-66.347 234.667-160-36.907-93.654-127.894-160-234.667-160zm0 266.666c-58.88 0-106.667-47.787-106.667-106.667S175.787 128 234.667 128s106.667 47.787 106.667 106.667-47.787 106.666-106.667 106.666z"/></symbol><symbol viewBox="0 0 430.113 430.114" id="icons--facebook" xmlns="http://www.w3.org/2000/svg"><path d="M158.081 83.3v59.218h-43.385v72.412h43.385v215.183h89.122V214.936h59.805s5.601-34.721 8.316-72.685H247.54V92.74c0-7.4 9.717-17.354 19.321-17.354h48.557V.001h-66.021C155.878-.004 158.081 72.48 158.081 83.3z"/></symbol><symbol viewBox="0 0 96.669 96.669" id="icons--google-plus" xmlns="http://www.w3.org/2000/svg"><path d="M50.91 55.189l-4.533-3.522c-1.38-1.144-3.27-2.656-3.27-5.422 0-2.778 1.889-4.544 3.527-6.18 5.279-4.157 10.557-8.581 10.557-17.903 0-9.586-6.031-14.629-8.923-17.022h7.795L64.244 0H39.459C32.658 0 22.856 1.608 15.68 7.533c-5.408 4.666-8.046 11.099-8.046 16.892 0 9.831 7.548 19.798 20.88 19.798 1.259 0 2.636-.124 4.022-.252-.623 1.515-1.252 2.777-1.252 4.917 0 3.905 2.006 6.299 3.774 8.567-5.663.39-16.237 1.018-24.033 5.809-7.424 4.415-9.684 10.84-9.684 15.377 0 9.334 8.8 18.028 27.045 18.028 21.636 0 33.089-11.971 33.089-23.823.002-8.707-5.028-12.992-10.565-17.657zM34.431 40.691c-10.824 0-15.727-13.992-15.727-22.434 0-3.288.623-6.682 2.763-9.333C23.486 6.4 27 4.762 30.281 4.762c10.434 0 15.846 14.118 15.846 23.197 0 2.271-.251 6.296-3.144 9.207-2.023 2.021-5.409 3.525-8.552 3.525zm.124 50.696c-13.46 0-22.139-6.438-22.139-15.392 0-8.949 8.048-11.978 10.816-12.979 5.281-1.777 12.076-2.024 13.21-2.024 1.258 0 1.887 0 2.889.126 9.568 6.81 13.721 10.203 13.721 16.65.001 7.805-6.417 13.619-18.497 13.619zm48.124-50.888V27.894h-6.224v12.605H63.869v6.294h12.586v12.684h6.224V46.793h12.649v-6.294z"/></symbol><symbol viewBox="0 0 512 512" id="icons--house" xmlns="http://www.w3.org/2000/svg"><path d="M431.668 15c0-8.285-6.719-15-15-15h-80.336c-4.3 0-8.168 1.82-10.902 4.723L431.668 110.96zm68.758 207.145L294.03 15.754C283.875 5.594 270.367 0 256 0s-27.875 5.594-38.031 15.754L11.574 222.144C4.22 229.505 0 239.688 0 250.106c0 19.473 15.14 35.465 34.266 36.852v-14.89c0-12.02 4.683-23.325 13.183-31.82L224.18 63.515c8.5-8.5 19.801-13.184 31.821-13.184s23.32 4.684 31.82 13.184l176.73 176.73c8.5 8.5 13.184 19.8 13.184 31.82v14.891C496.86 285.57 512 269.578 512 250.105v-.015c0-10.402-4.219-20.586-11.574-27.945zM303.133 319.2h50.332V512h-50.332zm-144.602 0h50.336v50.331h-50.336zm0 0"/><path d="M266.605 84.727c-5.855-5.86-15.355-5.86-21.21 0L68.66 261.46a15.003 15.003 0 00-4.394 10.605V497c0 8.285 6.714 15 15 15h193.867V304.2c0-8.286 6.715-15 15-15h80.332c8.285 0 15 6.714 15 15V512h49.27c8.28 0 15-6.715 15-15V272.066c0-3.976-1.583-7.793-4.395-10.605zM238.867 384.53c0 8.285-6.715 15-15 15h-80.332c-8.285 0-15-6.715-15-15V304.2c0-8.285 6.715-15 15-15h80.332c8.285 0 15 6.715 15 15zm0 0"/></symbol><symbol viewBox="0 0 438.536 438.536" id="icons--instagram" xmlns="http://www.w3.org/2000/svg"><path d="M421.981 16.562C410.941 5.519 397.711 0 382.298 0H56.248C40.83 0 27.604 5.521 16.561 16.562 5.52 27.6.001 40.828.001 56.243V382.29c0 15.413 5.518 28.644 16.56 39.683 11.043 11.04 24.272 16.563 39.687 16.563h326.046c15.41 0 28.644-5.523 39.684-16.563 11.043-11.039 16.557-24.27 16.557-39.683V56.243c-.001-15.418-5.514-28.639-16.554-39.681zM157.462 158.025c17.224-16.652 37.924-24.982 62.097-24.982 24.36 0 45.153 8.33 62.381 24.982 17.228 16.655 25.837 36.785 25.837 60.386 0 23.598-8.609 43.729-25.837 60.379-17.228 16.659-38.014 24.988-62.381 24.988-24.172 0-44.87-8.336-62.097-24.988-17.228-16.652-25.841-36.781-25.841-60.379 0-23.601 8.613-43.73 25.841-60.386zm231.403 212.564c0 4.945-1.718 9.083-5.141 12.416-3.433 3.33-7.519 4.996-12.282 4.996h-305.2c-4.948 0-9.091-1.666-12.419-4.996-3.333-3.326-4.998-7.471-4.998-12.416V185.575H89.08c-3.805 11.993-5.708 24.462-5.708 37.402 0 36.553 13.322 67.715 39.969 93.511 26.65 25.786 58.721 38.685 96.217 38.685 24.744 0 47.583-5.903 68.527-17.703 20.937-11.807 37.486-27.839 49.676-48.112 12.183-20.272 18.274-42.4 18.274-66.38 0-12.94-1.91-25.406-5.715-37.402h38.547V370.59h-.002zm0-254.963c0 5.52-1.903 10.184-5.716 13.99-3.805 3.809-8.466 5.711-13.989 5.711h-49.676c-5.517 0-10.185-1.903-13.99-5.711-3.806-3.806-5.708-8.47-5.708-13.99V68.522c0-5.33 1.902-9.945 5.708-13.848 3.806-3.901 8.474-5.854 13.99-5.854h49.676c5.523 0 10.185 1.952 13.989 5.854 3.812 3.903 5.716 8.518 5.716 13.848v47.104z"/></symbol><symbol viewBox="0 0 512 512" id="icons--photo" xmlns="http://www.w3.org/2000/svg"><path d="M497 0H15C6.716 0 0 6.716 0 15v482c0 8.284 6.716 15 15 15h482c8.285 0 15-6.716 15-15V15c0-8.284-6.715-15-15-15zm-15 407.37l-93.977-112.772a14.998 14.998 0 00-21.31-1.765l-73.677 63.436-129.882-157.994a15 15 0 00-24.638 2.131L30 391.905V30h452v377.37z"/><path d="M352.4 96.4c-34.848 0-63.199 28.352-63.199 63.2s28.352 63.201 63.199 63.201c34.849 0 63.199-28.352 63.199-63.2S387.249 96.4 352.4 96.4z"/></symbol><symbol viewBox="0 0 512 512" id="icons--pin" xmlns="http://www.w3.org/2000/svg"><path d="M256 120c-33.091 0-60 26.909-60 60 0 33.249 26.861 60 60 60 33.733 0 60-27.255 60-60 0-33.091-26.909-60-60-60z"/><path d="M256 0C156.742 0 76 80.742 76 180c0 33.53 9.287 66.255 26.851 94.644l142.896 230.259c5.925 9.569 19.895 9.423 25.635-.205L410.63 272.212C427.211 244.424 436 212.534 436 180 436 80.742 355.258 0 256 0zm0 270.2c-50.345 0-90.2-40.979-90.2-90.2 0-49.629 40.571-90.2 90.2-90.2s90.2 40.571 90.2 90.2c0 48.787-39.319 90.2-90.2 90.2z"/></symbol><symbol viewBox="-62 0 512 512" id="icons--pinterest" xmlns="http://www.w3.org/2000/svg"><path d="M60.945 278.219c.64-1.598 7.051-26.23 7.5-27.899-10.007-15.058-21.125-64.37-12.597-104.398 9.199-58.73 71.437-87.602 130.199-87.602v-.11c73.57.048 128.64 40.981 128.7 111.477.046 55.18-33.196 128.118-89.958 128.118h-.043c-20.258 0-45.906-9.188-52.633-18.211-7.761-10.399-9.668-23.23-5.566-36.942 10.05-32.082 22.867-70.511 24.363-96.136 1.387-24.184-15.773-39.918-38.027-39.918-16.746 0-38.496 9.726-49.336 37.058-8.953 22.707-8.762 46.48.586 72.672 3.644 10.238-16.156 76.984-22.5 98.719-15.762 53.992-37.34 122.305-32.727 160.348L53.36 512l22.368-29.313c30.953-40.519 62.957-145.332 71.484-170.835 25.21 32.648 77.71 33.586 83.832 33.586 75.184 0 160.437-74.657 158.02-178.563C386.94 75.754 320.252 0 200.43 0v.117C86.453.117 19.93 60.953 3.645 137.82c-14.915 71.274 18.253 125.52 57.3 140.399zm0 0"/></symbol><symbol viewBox="0 0 206.688 206.688" id="icons--quote" xmlns="http://www.w3.org/2000/svg"><path d="M140.741 59.29h-50.53c-9.127 0-16.551 8.196-16.551 18.27v2.594h28.973c11.504 0 20.864 10.332 20.864 23.03v11.256l8.031 8.865c.694.766 1.613 1.188 2.586 1.188 2.026 0 3.675-1.817 3.675-4.05v-7.444h2.951c9.127 0 16.551-8.195 16.551-18.27V77.56c0-10.073-7.424-18.268-16.55-18.268z"/><path d="M102.633 86.063H62.162c-1.338 0-2.637.188-3.876.54-6.69 1.9-11.634 8.603-11.634 16.582v19.196c0 2.955.678 5.735 1.872 8.16a16.931 16.931 0 002.67 3.946c2.807 3.099 6.685 5.015 10.968 5.015h6.292v6.674a3.759 3.759 0 00.05.59c.022.14.05.276.086.407l.008.03a3.417 3.417 0 00.367.82l.025.045c.073.113.153.218.237.318l.068.077c.075.084.153.163.235.237.016.014.031.03.048.044a2.998 2.998 0 00.663.432l.064.032c.113.05.229.093.347.128a2.806 2.806 0 00.39.086 2.659 2.659 0 00.447.031l.077-.003a2.58 2.58 0 00.326-.036l.065-.01c.123-.024.245-.059.365-.101l.082-.032c.112-.043.222-.094.33-.154l.04-.02a2.998 2.998 0 00.419-.297 3.13 3.13 0 00.326-.309l8.144-8.988h20.972c8.566 0 15.51-7.666 15.51-17.122v-19.196c0-9.456-6.945-17.122-15.512-17.122zM2.744 2.93h8.233v202.386H2.744z"/><path d="M2.744 197.083h200.328v8.233H2.744zM10.977 2.93h192.781v8.233H10.977z"/><path d="M194.839 11.163h8.919v190.723h-8.919z"/></symbol><symbol viewBox="0 0 360 360" id="icons--screen" xmlns="http://www.w3.org/2000/svg"><path d="M230.77 291.289a2.504 2.504 0 00-1.734-.699h-98.071c-.646 0-1.269.251-1.734.699l-32.938 31.735a2.504 2.504 0 00-.766 1.801v6.929a2.5 2.5 0 002.5 2.5h163.947a2.5 2.5 0 002.5-2.5v-6.929a2.5 2.5 0 00-.766-1.801l-32.938-31.735zM352.86 25.746H7.142A7.143 7.143 0 000 32.886v244.958a7.144 7.144 0 007.142 7.145H352.86a7.142 7.142 0 007.14-7.145V32.886a7.141 7.141 0 00-7.14-7.14zM180 271.775a7.855 7.855 0 01-7.852-7.856 7.854 7.854 0 1115.707 0 7.855 7.855 0 01-7.855 7.856zm151.266-31.436H28.737V59.68h302.528v180.659z"/><path d="M160.044 198.379a2.044 2.044 0 002.892 0l87.602-87.601a2.043 2.043 0 000-2.892l-18.184-18.184c-.769-.769-2.126-.768-2.893 0l-67.972 67.973-30.952-30.953a2.045 2.045 0 00-2.893 0l-18.184 18.182a2.043 2.043 0 000 2.892l50.584 50.583z"/></symbol><symbol viewBox="0 0 512.005 512.005" id="icons--search" xmlns="http://www.w3.org/2000/svg"><path d="M505.749 475.587l-145.6-145.6c28.203-34.837 45.184-79.104 45.184-127.317C405.333 90.926 314.41.003 202.666.003S0 90.925 0 202.669s90.923 202.667 202.667 202.667c48.213 0 92.48-16.981 127.317-45.184l145.6 145.6c4.16 4.16 9.621 6.251 15.083 6.251s10.923-2.091 15.083-6.251c8.341-8.341 8.341-21.824-.001-30.165zM202.667 362.669c-88.235 0-160-71.765-160-160s71.765-160 160-160 160 71.765 160 160-71.766 160-160 160z"/></symbol><symbol viewBox="0 0 481.8 481.8" id="icons--team" xmlns="http://www.w3.org/2000/svg"><path d="M481.143 368.863l-11.952-60.019c-4.74-23.763-23.338-42.327-47.099-47.027l-16.173-3.19c-9.29-1.835-16.582-9.062-18.517-18.337l-3.087-14.849c-.975-4.764.74-9.686 4.487-12.779 14.614-12.094 27.983-29.879 35.715-50.879 10.739-1.929 20.518-12.25 23.683-26.454 3.905-17.606-3.843-34.296-17.321-37.288-.142-.023-.284-.009-.456-.023-4.063-45.714-21.669-79.561-80.215-79.561-57.57 0-75.838 33.84-80.137 79.529-.189.047-.394.032-.535.056-13.463 2.992-21.211 19.683-17.306 37.288 3.133 14.204 12.93 24.525 23.668 26.454 7.746 21.008 21.115 38.793 35.697 50.879a13.12 13.12 0 014.473 12.763l-3.07 14.85a23.57 23.57 0 01-18.519 18.353l-16.141 3.19c-21.116 4.171-38.076 19.296-44.956 39.271 20.831 11.826 36.043 32.124 40.91 56.555l10.408 52.178h162.838a34.258 34.258 0 0026.486-12.535 34.291 34.291 0 007.119-28.425z"/><path d="M250.578 362.368c-4.741-23.77-23.338-42.336-47.115-47.036l-16.157-3.189a23.584 23.584 0 01-18.518-18.337l-3.086-14.857a13.147 13.147 0 014.487-12.778c14.614-12.086 27.982-29.881 35.699-50.879 10.755-1.929 20.533-12.252 23.698-26.454 3.905-17.605-3.843-34.298-17.321-37.297-.143-.024-.284-.008-.473-.024-4.047-45.712-21.652-79.553-80.215-79.553-57.556 0-75.821 33.833-80.12 79.53-.205.039-.394.023-.536.047-13.479 2.999-21.227 19.691-17.32 37.297 3.133 14.202 12.928 24.525 23.668 26.454 7.746 21.006 21.115 38.793 35.713 50.887a13.119 13.119 0 014.473 12.763l-3.072 14.85a23.567 23.567 0 01-18.518 18.352l-16.141 3.189c-23.777 4.7-42.374 23.267-47.115 47.036L.658 422.389a34.289 34.289 0 007.117 28.423 34.263 34.263 0 0026.486 12.534h194.664c10.25 0 19.982-4.6 26.486-12.534a34.288 34.288 0 007.117-28.423l-11.95-60.021z"/></symbol><symbol viewBox="0 0 512 512" id="icons--twitter" xmlns="http://www.w3.org/2000/svg"><path d="M512 97.248c-19.04 8.352-39.328 13.888-60.48 16.576 21.76-12.992 38.368-33.408 46.176-58.016-20.288 12.096-42.688 20.64-66.56 25.408C411.872 60.704 384.416 48 354.464 48c-58.112 0-104.896 47.168-104.896 104.992 0 8.32.704 16.32 2.432 23.936-87.264-4.256-164.48-46.08-216.352-109.792-9.056 15.712-14.368 33.696-14.368 53.056 0 36.352 18.72 68.576 46.624 87.232-16.864-.32-33.408-5.216-47.424-12.928v1.152c0 51.008 36.384 93.376 84.096 103.136-8.544 2.336-17.856 3.456-27.52 3.456-6.72 0-13.504-.384-19.872-1.792 13.6 41.568 52.192 72.128 98.08 73.12-35.712 27.936-81.056 44.768-130.144 44.768-8.608 0-16.864-.384-25.12-1.44C46.496 446.88 101.6 464 161.024 464c193.152 0 298.752-160 298.752-298.688 0-4.64-.16-9.12-.384-13.568 20.832-14.784 38.336-33.248 52.608-54.496z"/></symbol><symbol viewBox="0 0 512 512" id="icons--web" xmlns="http://www.w3.org/2000/svg"><path d="M492 76H20C8.954 76 0 84.954 0 96v320c0 11.046 8.954 20 20 20h472c11.046 0 20-8.954 20-20V96c0-11.046-8.954-20-20-20zm-20 320H40V116h432v280z"/><path d="M432 204c-6.629-8.838-19.166-10.627-28-4l-94.664 71-94.668-71a20.001 20.001 0 00-24 0L84 280c-8.836 6.627-10.627 19.163-4 28 6.629 8.839 19.166 10.625 28 4l94.668-71 94.668 71a20.001 20.001 0 0024 0L428 232c8.837-6.628 10.627-19.164 4-28z"/></symbol><symbol viewBox="-21 -117 682.667 682" id="icons--youtube" xmlns="http://www.w3.org/2000/svg"><path d="M626.813 64.035c-7.375-27.418-28.993-49.031-56.407-56.414C520.324-6.082 319.992-6.082 319.992-6.082s-200.324 0-250.406 13.184c-26.887 7.375-49.031 29.52-56.406 56.933C0 114.113 0 217.97 0 217.97s0 104.379 13.18 153.933c7.382 27.414 28.992 49.028 56.41 56.41C120.195 442.02 320 442.02 320 442.02s200.324 0 250.406-13.184c27.418-7.379 49.032-28.992 56.414-56.406 13.176-50.082 13.176-153.934 13.176-153.934s.527-104.383-13.183-154.46zM256.21 313.915V122.022l166.586 95.946zm0 0"/></symbol></svg>